<svg id="Layer_1" data-name="Layer 1" xmlns="http://www.w3.org/2000/svg" viewBox="0 0 256.8 503.9"><defs><style>.cls-1{fill:#e17a04;}</style></defs><path class="cls-1" d="M308.3,508.5c-2.5.1-4.1.3-5.7.3-34.2,0-68.3-.1-102.5.1-4.8,0-6.1-1.3-6.1-6.1q.15-119.4.1-238.9V257H139V172h5.4c15,0,30-.1,45,.1,3.8,0,4.8-1.1,4.8-4.8-.2-22.3-.2-44.7,0-67,.1-15.6,2.6-30.8,9.8-44.9,10.3-19.9,26.6-32.8,47.2-40.8,16.8-6.6,34.5-9,52.3-9.3,29-.4,58-.2,87-.3,2.7,0,4.9-.1,4.9,3.7q-.15,41.25-.1,82.5a8.14,8.14,0,0,1-.5,1.9h-5.5c-18,0-36-.1-54,0-10.4,0-18.8,4.2-24.1,13.3a19.24,19.24,0,0,0-2.6,9.4c-.3,17,0,34-.2,51,0,4,1.2,5.1,5.1,5.1,25-.2,50-.1,75-.1h7.3c-3.5,28.6-6.9,56.6-10.4,84.9H308.3Z" transform="translate(-139 -5)"/></svg>