<svg id="Layer_1" data-name="Layer 1" xmlns="http://www.w3.org/2000/svg" viewBox="0 0 506.4 504.23"><defs><style>.cls-1{fill:#e17a04;}</style></defs><path class="cls-1" d="M173.5,508.7v-330c0-3-.2-5.4,4.2-5.4,31.8.2,63.7.1,95.5.1a21.64,21.64,0,0,1,2.9.4v41.7c.4.1.7.3,1.1.4,4-5.2,7.8-10.6,12-15.7a104.24,104.24,0,0,1,45.5-32.6,105.6,105.6,0,0,1,30.8-6.3c14.2-.6,28.7-.4,42.7,2a109.58,109.58,0,0,1,60.1,30.8c15.9,15.7,26.4,34.6,32.1,55.9,3,11.3,4.9,22.9,6.7,34.4a164.25,164.25,0,0,1,1.8,24.2q.15,97.5.1,195c0,1.6-.1,3.2-.2,5.3h-5.1c-30.7,0-61.3-.1-92,.1-5.1,0-6-1.7-6-6.3.1-59.8.3-119.7-.1-179.5a128.12,128.12,0,0,0-3.8-31.5c-4.9-17.7-16.1-30.5-33.9-37a75.68,75.68,0,0,0-45.6-2.6c-17,4.3-28.7,15.6-37.5,30.5-6.8,11.5-8.1,24.2-8.2,36.9-.4,60.7-.2,121.3-.2,182v7.1C241.9,508.7,208,508.7,173.5,508.7Z" transform="translate(-2.6 -4.77)"/><path class="cls-1" d="M109.1,342.6c0,53.3-.1,106.6.1,159.9,0,4.8-1,6.6-6.3,6.5q-45.75-.45-91.5,0c-5,0-6.1-1.7-6.1-6.3q.15-160.65,0-321.4c0-4.3,1.2-5.8,5.6-5.8q46.2.3,92.5,0c4.8,0,5.7,1.8,5.7,6.1Z" transform="translate(-2.6 -4.77)"/><path class="cls-1" d="M56.1,4.8C89,4,108.7,27.9,108.8,57.2c.1,30-20.9,52.4-53.9,52.3-30.7,0-52.4-22-52.3-53.1C2.7,27.3,23.8,3.8,56.1,4.8Z" transform="translate(-2.6 -4.77)"/></svg>